<svg width="32" height="32" viewBox="0 0 200 200" xmlns="http://www.w3.org/2000/svg">
  <!-- Background circle with borders -->
  <circle cx="100" cy="100" r="95" fill="black"/>
  <circle cx="100" cy="100" r="90" fill="white"/>
  <circle cx="100" cy="100" r="85" fill="black"/>
  
  <!-- Sky gradient (upper half) -->
  <defs>
    <linearGradient id="skyGradient" x1="0%" y1="0%" x2="0%" y2="100%">
      <stop offset="0%" style="stop-color:#87CEEB;stop-opacity:1" />
      <stop offset="50%" style="stop-color:#FFB347;stop-opacity:1" />
      <stop offset="100%" style="stop-color:#FFB347;stop-opacity:0.8" />
    </linearGradient>
  </defs>
  
  <!-- Sky section -->
  <path d="M15 15 L185 15 L185 100 L15 100 Z" fill="url(#skyGradient)"/>
  
  <!-- Mountains -->
  <path d="M15 100 L50 60 L80 80 L110 50 L140 70 L170 40 L185 60 L185 100 Z" fill="#ADD8E6" stroke="black" stroke-width="1"/>
  
  <!-- Motorcycle silhouette -->
  <path d="M25 45 L35 45 L38 42 L40 40 L42 38 L45 35 L48 32 L50 30 L52 28 L55 25 L58 22 L60 20 L62 18 L65 15 L68 12 L70 10 L72 8 L75 5 L78 2 L80 0 L82 2 L85 5 L88 8 L90 10 L92 12 L95 15 L98 18 L100 20 L102 22 L105 25 L108 28 L110 30 L112 32 L115 35 L118 38 L120 40 L122 42 L125 45 L135 45" fill="black" stroke="black" stroke-width="1"/>
  <circle cx="30" cy="45" r="3" fill="black"/>
  <circle cx="130" cy="45" r="3" fill="black"/>
  
  <!-- Text: Travel Website -->
  <text x="100" y="55" text-anchor="middle" font-family="Arial, sans-serif" font-size="12" font-weight="bold" fill="black">Travel</text>
  <text x="100" y="70" text-anchor="middle" font-family="Arial, sans-serif" font-size="11" font-weight="bold" fill="red">Website</text>
</svg>
